<svg width="124" height="22" viewBox="0 0 124 22" fill="none" xmlns="http://www.w3.org/2000/svg">
<path d="M18.2 21L11.116 1.4H7.252L0.14 21H3.64L5.012 17.052H13.356L14.728 21H18.2ZM9.184 5.18L12.292 14.028H6.076L9.184 5.18ZM27.5702 1.036C23.4262 0.783998 21.2422 2.884 21.2422 6.72V7H19.1142V9.912H21.2422V21H24.2662V9.912H27.5702V7H24.2662V6.72C24.2662 4.676 25.3582 3.752 27.5702 3.948V1.036ZM32.9236 7H29.8996V21H32.9236V13.944C32.9236 12.516 33.3436 11.48 34.2116 10.864C35.0796 10.22 36.0876 9.94 37.2356 10.024V6.748C35.1356 6.748 33.6796 7.616 32.9236 9.352V7ZM42.8859 4.34C43.6699 3.556 43.6699 2.38 42.9139 1.624C42.1579 0.839999 40.9259 0.839999 40.1699 1.624C39.4139 2.38 39.4139 3.556 40.1699 4.34C40.9539 5.096 42.1299 5.096 42.8859 4.34ZM43.0539 21V7H40.0299V21H43.0539ZM58.2131 8.988C57.0651 7.42 55.4411 6.636 53.3131 6.636C51.3811 6.636 49.7571 7.336 48.3851 8.764C47.0131 10.192 46.3411 11.928 46.3411 14C46.3411 16.044 47.0131 17.808 48.3851 19.236C49.7571 20.664 51.3811 21.364 53.3131 21.364C55.4411 21.364 57.0651 20.58 58.2131 18.984V21H61.2371V7H58.2131V8.988ZM50.6251 17.22C49.7851 16.352 49.3651 15.288 49.3651 14C49.3651 12.712 49.7851 11.648 50.6251 10.808C51.4651 9.94 52.5291 9.52 53.7891 9.52C55.0491 9.52 56.1131 9.94 56.9531 10.808C57.7931 11.648 58.2131 12.712 58.2131 14C58.2131 15.288 57.7931 16.352 56.9531 17.22C56.1131 18.06 55.0491 18.48 53.7891 18.48C52.5291 18.48 51.4651 18.06 50.6251 17.22ZM72.6858 6.636C70.6978 6.636 69.2698 7.364 68.3458 8.792V7H65.3218V21H68.3458V13.496C68.3458 10.78 69.7738 9.464 71.9018 9.464C73.8338 9.464 75.0378 10.612 75.0378 12.712V21H78.0618V12.404C78.0618 8.82 75.9058 6.636 72.6858 6.636ZM84.5939 10.864C84.5939 9.884 85.4899 9.38 86.6379 9.38C87.8979 9.38 88.7939 9.912 89.2699 10.976L91.8179 9.548C90.8379 7.728 88.9619 6.636 86.6379 6.636C85.1819 6.636 83.9499 7.028 82.9699 7.812C81.9899 8.596 81.5139 9.632 81.5139 10.92C81.4579 13.86 84.2859 14.7 86.3859 15.232C87.8699 15.596 89.0459 16.128 89.0459 17.024C89.0459 18.06 88.2619 18.592 86.6659 18.592C85.0699 18.592 84.0339 17.92 83.5579 16.576L80.9539 18.088C81.8499 20.132 83.8939 21.364 86.6659 21.364C88.2339 21.364 89.5219 20.972 90.5579 20.216C91.5939 19.46 92.1259 18.396 92.1259 17.052C92.1819 14.056 89.3819 13.16 87.2259 12.684C85.7699 12.264 84.5939 11.788 84.5939 10.864ZM101.172 13.86L107.332 7H103.636L98.2041 13.188V1.4H95.1801V21H98.2041V14.532L103.944 21H107.556L101.172 13.86ZM120.117 8.988C118.969 7.42 117.345 6.636 115.217 6.636C113.285 6.636 111.661 7.336 110.289 8.764C108.917 10.192 108.245 11.928 108.245 14C108.245 16.044 108.917 17.808 110.289 19.236C111.661 20.664 113.285 21.364 115.217 21.364C117.345 21.364 118.969 20.58 120.117 18.984V21H123.141V7H120.117V8.988ZM112.529 17.22C111.689 16.352 111.269 15.288 111.269 14C111.269 12.712 111.689 11.648 112.529 10.808C113.369 9.94 114.433 9.52 115.693 9.52C116.953 9.52 118.017 9.94 118.857 10.808C119.697 11.648 120.117 12.712 120.117 14C120.117 15.288 119.697 16.352 118.857 17.22C118.017 18.06 116.953 18.48 115.693 18.48C114.433 18.48 113.369 18.06 112.529 17.22Z" fill="white"/>
</svg>
